<svg xmlns="http://www.w3.org/2000/svg" width="35.218" height="34.375" viewBox="0 0 35.218 34.375">
  <defs>
    <style>
      .cls-1 {
        fill: #ff431e;
        fill-rule: evenodd;
      }
    </style>
  </defs>
  <path class="cls-1" d="M730.01,66.813H712.9c-3.81,0-4.841-1.258-4.841-5.178V43.857a1.007,1.007,0,0,1,2.013,0V61.635c0,2.855.119,3.181,2.828,3.181H730.01c2.709,0,3.211-.327,3.211-3.181V43.857a1.007,1.007,0,0,1,2.013,0V61.635C735.234,65.555,733.82,66.813,730.01,66.813Zm-4.338-.5a0.5,0.5,0,0,1-.5-0.5V56.346c0-.992-0.192-1.011-1.3-1.011h-4.831c-1.108,0-.916.019-0.916,1.011v9.469a0.5,0.5,0,0,1-1.007,0V56.346c0-1.718.461-2.009,1.923-2.009h4.831c1.461,0,2.3.291,2.3,2.009v9.469A0.5,0.5,0,0,1,725.672,66.314ZM704.846,46.831a1.01,1.01,0,0,1-.8-0.4,0.994,0.994,0,0,1,.2-1.4l16.609-12.393a1.012,1.012,0,0,1,1.409.2,0.992,0.992,0,0,1-.2,1.4L705.451,46.63A1.009,1.009,0,0,1,704.846,46.831Zm33.215,0a1.007,1.007,0,0,1-.6-0.2L720.849,34.237a0.992,0.992,0,0,1-.2-1.4,1.012,1.012,0,0,1,1.409-.2l16.608,12.393a0.991,0.991,0,0,1,.2,1.4A1.006,1.006,0,0,1,738.061,46.831Zm-25.474,4.512a0.5,0.5,0,0,1-.5-0.5V45.167a0.433,0.433,0,0,1,.1-0.4l6.557-5.022a0.478,0.478,0,0,1,.682.093,0.491,0.491,0,0,1-.009.7l-6.325,4.872v5.43A0.5,0.5,0,0,1,712.587,51.342Zm0,2.5a0.5,0.5,0,0,1-.5-0.5v-0.5a0.5,0.5,0,0,1,1.006,0v0.5A0.5,0.5,0,0,1,712.587,53.838Z" transform="translate(-703.844 -32.438)"/>
</svg>
